<svg xmlns="http://www.w3.org/2000/svg" viewBox="0 0 599.61 128.33"><defs><style>.cls-1{fill:#001334;}</style></defs><g id="woord"><g id="Woord-2" data-name="Woord"><path class="cls-1" d="M129.31,104.05q-9.8,0-16.17-3.92a16.26,16.26,0,0,1-7.84-10.68,2.31,2.31,0,0,1,.49-2,2.55,2.55,0,0,1,2-.73h8.33a3.22,3.22,0,0,1,2.85,2.05q2.34,4.71,10.87,4.71a11.82,11.82,0,0,0,5.69-1.18,3.52,3.52,0,0,0,2.15-3.13q0-2.55-3.13-3.68a35.34,35.34,0,0,0-7.65-1.66,78.91,78.91,0,0,1-9-1.62,15.11,15.11,0,0,1-7.65-4.41q-3.14-3.33-3.13-9a13,13,0,0,1,6-11.17q6-4.22,15.78-4.21a29.13,29.13,0,0,1,14.65,3.43,15.76,15.76,0,0,1,7.79,9.8,2.11,2.11,0,0,1-.24,2,2.42,2.42,0,0,1-2,.79h-8.33a3.27,3.27,0,0,1-2.94-2q-2.55-4-9.21-4a10.79,10.79,0,0,0-5.2,1.13,3.48,3.48,0,0,0-2,3.18,3.82,3.82,0,0,0,2.3,3.43,15.31,15.31,0,0,0,5.73,1.67q3.44.39,7.45,1.22a56.19,56.19,0,0,1,7.45,2.06,12.07,12.07,0,0,1,5.73,4.36,13,13,0,0,1,2.3,7.94,13.08,13.08,0,0,1-6.12,11.47Q140,104.05,129.31,104.05Z"/><path class="cls-1" d="M165.08,102.48c-2,0-3-1-3-3V29.87a2.69,2.69,0,0,1,3-3h8.63q3,0,3,3v48.9l18.82-22A4.1,4.1,0,0,1,199.09,55H209c1.24,0,2,.38,2.35,1.13a2.36,2.36,0,0,1-.69,2.5L193.6,78.77l19.5,20.09c.91.91,1.21,1.75.88,2.5s-1.14,1.12-2.45,1.12H200.36a4.77,4.77,0,0,1-3.62-1.56l-20-20.49v19a2.68,2.68,0,0,1-3,3Z"/><path class="cls-1" d="M239.66,104.05q-10.68,0-17.54-7.1t-6.86-18.18q0-11.17,6.81-18.28t17.59-7.1q9.32,0,15.09,6.17h.2V58a2.69,2.69,0,0,1,3-3h8.42a2.69,2.69,0,0,1,3,3V99.45q0,3-3,3H258q-3,0-3-3V97.88h-.2A19.94,19.94,0,0,1,239.66,104.05Zm2.65-11.46a11.34,11.34,0,0,0,8.91-3.87,14.43,14.43,0,0,0,3.43-10,14.59,14.59,0,0,0-3.43-10,11.34,11.34,0,0,0-8.91-3.87,11.77,11.77,0,0,0-9.12,3.87,14.37,14.37,0,0,0-3.53,10,14.21,14.21,0,0,0,3.53,10A11.77,11.77,0,0,0,242.31,92.59Z"/><path class="cls-1" d="M307.77,104.05q-9.4,0-15.14-5.24t-5.74-13.87V66.81h-7.84q-3,0-3-3V58c0-2,1-3,3-3h7.84V42.9a2.69,2.69,0,0,1,3-3h8.63c2,0,3,1,3,3V55H314a2.69,2.69,0,0,1,3,3v5.78a2.69,2.69,0,0,1-3,3H301.59V83.28a7.65,7.65,0,0,0,2.26,6c1.5,1.38,3.69,2.06,6.57,2.06.71,0,1.92-.06,3.62-.19,2-.2,3,.72,3,2.74v6.37c0,1.9-.85,3-2.55,3.23A36,36,0,0,1,307.77,104.05Z"/><path class="cls-1" d="M349.71,104.05q-12,0-19.3-7t-7.35-18.32q0-11.47,7.2-18.43t18.87-7q12,0,18.81,7t6.76,19.9a2.68,2.68,0,0,1-3,3h-34.3a12.3,12.3,0,0,0,4.6,7,13.12,13.12,0,0,0,8,2.55,12.14,12.14,0,0,0,8.13-2.65,4.42,4.42,0,0,1,3-1.27h9.7a2.73,2.73,0,0,1,2,.64,1.29,1.29,0,0,1,.15,1.61,20,20,0,0,1-9,9.36A29.26,29.26,0,0,1,349.71,104.05Zm-12.44-29.4h23.42a10.53,10.53,0,0,0-3.23-7.49,11.06,11.06,0,0,0-7.94-2.9,12.19,12.19,0,0,0-8.19,2.9A11.75,11.75,0,0,0,337.27,74.65Z"/><path class="cls-1" d="M387.84,102.48q-3,0-3-3V58a2.69,2.69,0,0,1,3-3h8.33c2.09,0,3.13,1,3.13,3v1.57h.2a19.44,19.44,0,0,1,14.7-6.17,19.14,19.14,0,0,1,14.7,6.27,23,23,0,0,1,16.36-6.27q9.62,0,15.83,6.07T467.31,75V99.45q0,3-3.13,3h-8.63c-2,0-3-1-3-3V77a11.51,11.51,0,0,0-2.74-8,9.41,9.41,0,0,0-7.35-3A8.09,8.09,0,0,0,436,68.82a11.52,11.52,0,0,0-2.45,7.69V99.45q0,3-3.13,3h-8.63c-2,0-3-1-3-3V77a12.11,12.11,0,0,0-2.54-8,8.39,8.39,0,0,0-6.77-3,9.41,9.41,0,0,0-7.2,2.89,10.81,10.81,0,0,0-2.69,7.69V99.45c0,2-1,3-3,3Z"/><path class="cls-1" d="M500.73,104.05q-10.68,0-17.54-7.1t-6.86-18.18q0-11.17,6.81-18.28t17.59-7.1q9.31,0,15.09,6.17h.2V58a2.69,2.69,0,0,1,3-3h8.42a2.69,2.69,0,0,1,3,3V99.45q0,3-3,3h-8.42q-3,0-3-3V97.88h-.2A19.94,19.94,0,0,1,500.73,104.05Zm2.65-11.46a11.34,11.34,0,0,0,8.91-3.87,14.43,14.43,0,0,0,3.43-10,14.59,14.59,0,0,0-3.43-10,11.34,11.34,0,0,0-8.91-3.87,11.77,11.77,0,0,0-9.12,3.87,14.37,14.37,0,0,0-3.53,10,14.21,14.21,0,0,0,3.53,10A11.77,11.77,0,0,0,503.38,92.59Z"/><path class="cls-1" d="M572.76,104.05q-9.6,0-15.09-6.07h-.2v24.2q0,3-3,3h-8.62q-3,0-3-3V58a2.69,2.69,0,0,1,3-3h8.33c2.09,0,3.14,1,3.14,3v1.67h.19a20.38,20.38,0,0,1,15.09-6.27q10.68,0,17.54,7.15T597,78.77q0,11.17-6.82,18.23T572.76,104.05Zm6.17-35.28a12.32,12.32,0,0,0-18,0,14.48,14.48,0,0,0-3.48,10,14.25,14.25,0,0,0,3.48,10,11.58,11.58,0,0,0,9,3.83,11.71,11.71,0,0,0,9-3.83,14.1,14.1,0,0,0,3.53-10A14.36,14.36,0,0,0,578.93,68.77Z"/></g></g><g id="dot"><g id="Dot-2" data-name="Dot"><path class="cls-1" d="M44.3,0A44.35,44.35,0,0,0,0,44.3C0,74.62,39.65,119.12,41.33,121a4,4,0,0,0,5.94,0C49,119.12,88.61,74.62,88.61,44.3A44.36,44.36,0,0,0,44.3,0Zm0,66.59A22.29,22.29,0,1,1,66.59,44.3,22.32,22.32,0,0,1,44.3,66.59Z"/></g></g></svg>