<svg xmlns="http://www.w3.org/2000/svg" viewBox="0 0 625.54 122.33"><defs><style>.cls-1{font-size:98px;font-family:Montserrat-Bold, Montserrat;font-weight:700;}.cls-1,.cls-4{fill:#001334;}.cls-2{letter-spacing:-0.03em;}.cls-3{letter-spacing:-0.02em;}</style></defs><title>Asset 1</title><g id="Layer_2" data-name="Layer 2"><g id="Layer_1-2" data-name="Layer 1"><text class="cls-1" transform="translate(35.39 92.82)"><tspan xml:space="preserve">   s</tspan><tspan class="cls-2" x="135.24" y="0">k</tspan><tspan x="196.58" y="0">a</tspan><tspan class="cls-3" x="257.05" y="0">t</tspan><tspan x="297.42" y="0">emap</tspan></text><path class="cls-4" d="M44.3,0A44.35,44.35,0,0,0,0,44.3C0,74.62,39.65,119.13,41.33,121a4,4,0,0,0,5.94,0C49,119.13,88.6,74.62,88.6,44.3A44.35,44.35,0,0,0,44.3,0m0,66.59A22.29,22.29,0,1,1,66.59,44.3,22.32,22.32,0,0,1,44.3,66.59"/></g></g></svg>