<svg width="33" height="33" viewBox="0 0 33 33" fill="none" xmlns="http://www.w3.org/2000/svg">
<g clip-path="url(#clip0)">
<path d="M27.1469 23.7916L22.5889 18.9573C23.4718 17.8006 24.0034 16.3308 24.0034 14.73C24.0034 11.0198 21.157 8.00085 17.6588 8.00085C14.1606 8.00085 11.3142 11.0197 11.3142 14.7299C11.3142 18.4401 14.1606 21.459 17.6588 21.459C19.1681 21.459 20.5539 20.8952 21.6445 19.9588L26.2026 24.7931C26.3328 24.9313 26.5038 25.0007 26.6748 25.0007C26.8458 25.0007 27.0167 24.9313 27.147 24.7931C27.4081 24.5162 27.4081 24.0685 27.1469 23.7916ZM17.6588 20.0424C14.8966 20.0424 12.6499 17.6596 12.6499 14.7299C12.6499 11.8003 14.8966 9.41749 17.6588 9.41749C20.421 9.41749 22.6677 11.8003 22.6677 14.7299C22.6677 17.6596 20.421 20.0424 17.6588 20.0424Z" fill="black"/>
</g>
<defs>
<clipPath id="clip0">
<rect width="16.0286" height="17" fill="white" transform="translate(11.3142 8)"/>
</clipPath>
</defs>
</svg>
