<svg width="19" height="19" viewBox="0 0 19 19" fill="none" xmlns="http://www.w3.org/2000/svg">
<g clip-path="url(#clip0)">
<path d="M12.6667 1.26672C13.3662 1.26672 13.9333 1.83383 13.9333 2.53339H17.7333C18.4329 2.53339 19 3.1005 19 3.80006C19 4.49961 18.4329 5.06672 17.7333 5.06672H13.9333C13.9333 5.76628 13.3662 6.33339 12.6667 6.33339C11.9671 6.33339 11.4 5.76628 11.4 5.06672V2.53339C11.4 1.83383 11.9671 1.26672 12.6667 1.26672Z" fill="black"/>
<path d="M1.26659 8.23334H3.79992C3.79992 7.53379 4.36703 6.96667 5.06659 6.96667C5.76614 6.96667 6.33325 7.53379 6.33325 8.23334V10.7667C6.33325 11.4662 5.76614 12.0333 5.06659 12.0333C4.36703 12.0333 3.79992 11.4662 3.79992 10.7667H1.26659C0.56703 10.7667 -8.01086e-05 10.1996 -8.01086e-05 9.50001C-8.01086e-05 8.80045 0.56703 8.23334 1.26659 8.23334Z" fill="black"/>
<path d="M1.2666 2.53333H9.49993C10.1995 2.53333 10.7666 3.10044 10.7666 3.79999C10.7666 4.49955 10.1995 5.06666 9.49993 5.06666H1.2666C0.567043 5.06666 -6.67572e-05 4.49955 -6.67572e-05 3.79999C-6.67572e-05 3.10044 0.567043 2.53333 1.2666 2.53333Z" fill="black"/>
<path d="M8.23333 8.23328H17.7333C18.4329 8.23328 19 8.80039 19 9.49994C19 10.1995 18.4329 10.7666 17.7333 10.7666H8.23333C7.53378 10.7666 6.96667 10.1995 6.96667 9.49994C6.96667 8.80039 7.53378 8.23328 8.23333 8.23328Z" fill="black"/>
<path d="M1.26676 13.9333H6.33343C7.03299 13.9333 7.6001 14.5005 7.6001 15.2C7.6001 15.8996 7.03299 16.4667 6.33343 16.4667H1.26676C0.567206 16.4667 9.53674e-05 15.8996 9.53674e-05 15.2C9.53674e-05 14.5005 0.567206 13.9333 1.26676 13.9333Z" fill="black"/>
<path d="M9.5 12.6666C10.1996 12.6666 10.7667 13.2337 10.7667 13.9333H17.7333C18.4329 13.9333 19 14.5004 19 15.2C19 15.8995 18.4329 16.4666 17.7333 16.4666H10.7667C10.7667 17.1662 10.1996 17.7333 9.5 17.7333C8.80044 17.7333 8.23333 17.1662 8.23333 16.4666V13.9333C8.23333 13.2337 8.80044 12.6666 9.5 12.6666Z" fill="black"/>
</g>
<defs>
<clipPath id="clip0">
<rect width="19" height="19" fill="white" transform="matrix(-1 0 0 1 19 0)"/>
</clipPath>
</defs>
</svg>
